<mxfile host="app.diagrams.net" modified="2023-06-22T14:24:41.336Z" agent="Mozilla/5.0 (X11; Linux x86_64) AppleWebKit/537.36 (KHTML, like Gecko) Chrome/112.0.0.0 Safari/537.36" version="21.5.0" etag="XrMyLyca4CT29btu_oTe" type="github">
  <diagram name="Pagina-1" id="7yT5OS-qtOHIKZ0dEo3Y">
    <mxGraphModel>
      <root>
        <mxCell id="0" />
        <mxCell id="1" parent="0" />
      </root>
    </mxGraphModel>
  </diagram>
</mxfile>
